<?xml version="1.0" standalone="no"?>
<!DOCTYPE svg PUBLIC "-//W3C//DTD SVG 20010904//EN"
 "http://www.w3.org/TR/2001/REC-SVG-20010904/DTD/svg10.dtd">
<svg version="1.0" xmlns="http://www.w3.org/2000/svg"
 width="250.000000pt" height="250.000000pt" viewBox="0 0 250.000000 250.000000"
 preserveAspectRatio="xMidYMid meet">
<metadata>
Created by potrace 1.11, written by Peter Selinger 2001-2013
</metadata>
<g transform="translate(0.000000,250.000000) scale(0.100000,-0.100000)"
fill="#000000" stroke="none">
<path d="M145 2454 c-43 -22 -64 -44 -89 -89 l-21 -40 0 -1070 0 -1070 29 -49
c22 -38 39 -53 81 -72 l53 -24 1068 2 c929 3 1072 5 1094 18 48 29 63 45 86
95 l24 50 0 1045 c0 699 -4 1058 -11 1083 -13 48 -62 104 -107 122 -29 13
-191 15 -1106 15 -952 0 -1074 -2 -1101 -16z"/>
</g>
</svg>
